<svg xmlns="http://www.w3.org/2000/svg" viewBox="0 0 134 134"><defs><style>.cls-1{fill:#0baaa5;}.cls-2{fill:#a36329;}.cls-3{fill:#f2ba68;}.cls-4{fill:#dd8637;}.cls-5{fill:#e89038;}.cls-6{fill:#fff;}.cls-7{fill:#262626;}</style></defs><title>fish-load_1</title><g id="Layer_2" data-name="Layer 2"><g id="weather_page" data-name="weather page"><g id="Layer_28" data-name="Layer 28"><rect class="cls-1" width="134" height="134"/><path class="cls-2" d="M39.73,52.46S71.5,33.61,82.5,38.5C91.5,42.5,79,53,79,53Z"/><path class="cls-2" d="M29.5,75.5s20.86,22.23,38.87,18c9.15-2.17-1.89-13.63-1.89-13.63Z"/><path class="cls-2" d="M110.5,64.5s14,30-15,3c-1.46-1.36-2.91-2.63-4.35-3.83,7.3-6.8,13.49-12.71,18.35-14.17C119.5,46.5,110.5,64.5,110.5,64.5Z"/><path class="cls-3" d="M38.69,83.32C32.15,79.43,25.4,73.07,18.5,63.5A65,65,0,0,1,47,48.73C51.83,53.85,63.28,69.48,38.69,83.32Z"/><path class="cls-4" d="M100.15,63.67c-16,14.9-37.33,34.05-61.46,19.65a47.18,47.18,0,0,0,7.53-5.17c6.7.25,27.86-.3,53.78-14.6Z"/><path class="cls-5" d="M100,63.55C74.08,77.85,52.92,78.4,46.22,78.15c14.34-12.36,5-24.93.75-29.42C61.35,45.48,80,47,100,63.55Z"/><circle class="cls-6" cx="37.5" cy="64.5" r="8"/><circle class="cls-7" cx="37" cy="65" r="6"/></g></g></g></svg>