<svg xmlns="http://www.w3.org/2000/svg" viewBox="0 0 445.72 57.31"><defs><style>.cls-1{fill:#a36329;}.cls-2{fill:#f2ba68;}.cls-3{fill:#dd8637;}.cls-4{fill:#e89038;}.cls-5{fill:#fff;}.cls-6{fill:#262626;}</style></defs><title>Fish-load</title><g id="Layer_2" data-name="Layer 2"><g id="weather_page" data-name="weather page"><g id="Layer_28" data-name="Layer 28"><path class="cls-1" d="M21.23,15.77S53-3.08,64,1.81c9,4-3.5,14.5-3.5,14.5Z"/><path class="cls-1" d="M11,38.81S31.86,61,49.87,56.76C59,54.59,48,43.13,48,43.13Z"/><path class="cls-1" d="M92,27.81s14,30-15,3c-1.46-1.36-2.91-2.63-4.35-3.83C80,20.18,86.14,14.27,91,12.81,101,9.81,92,27.81,92,27.81Z"/><path class="cls-2" d="M20.19,46.63C13.65,42.74,6.9,36.38,0,26.81A65,65,0,0,1,28.47,12C33.33,17.16,44.78,32.79,20.19,46.63Z"/><path class="cls-3" d="M81.65,27C65.64,41.88,44.32,61,20.19,46.63a47.18,47.18,0,0,0,7.53-5.17c6.7.25,27.86-.3,53.78-14.6Z"/><path class="cls-4" d="M81.5,26.86c-25.92,14.3-47.08,14.85-53.78,14.6,14.34-12.36,5-24.93.75-29.42C42.85,8.79,61.48,10.33,81.5,26.86Z"/><circle class="cls-5" cx="19" cy="27.81" r="8"/><circle class="cls-6" cx="18.5" cy="28.31" r="6"/><path class="cls-1" d="M197.23,15.77S229-3.08,240,1.81c9,4-3.5,14.5-3.5,14.5Z"/><path class="cls-1" d="M187,38.81S207.86,61,225.87,56.76C235,54.59,224,43.13,224,43.13Z"/><path class="cls-1" d="M268,27.81s14,30-15,3c-1.46-1.36-2.91-2.63-4.35-3.83,7.3-6.8,13.49-12.71,18.35-14.17C277,9.81,268,27.81,268,27.81Z"/><path class="cls-2" d="M196.19,46.63C189.65,42.74,182.9,36.38,176,26.81A65,65,0,0,1,204.47,12C209.33,17.16,220.78,32.79,196.19,46.63Z"/><path class="cls-3" d="M257.65,27c-16,14.9-37.33,34.05-61.46,19.65a47.18,47.18,0,0,0,7.53-5.17c6.7.25,27.86-.3,53.78-14.6Z"/><path class="cls-4" d="M257.5,26.86c-25.92,14.3-47.08,14.85-53.78,14.6,14.34-12.36,5-24.93.75-29.42C218.85,8.79,237.48,10.33,257.5,26.86Z"/><circle class="cls-5" cx="195" cy="27.81" r="8"/><circle class="cls-6" cx="194.5" cy="28.31" r="6"/><path class="cls-1" d="M371.23,14.77S403-4.08,414,.81c9,4-3.5,14.5-3.5,14.5Z"/><path class="cls-1" d="M361,37.81S381.86,60,399.87,55.76C409,53.59,398,42.13,398,42.13Z"/><path class="cls-1" d="M442,26.81s14,30-15,3c-1.46-1.36-2.91-2.63-4.35-3.83,7.3-6.8,13.49-12.71,18.35-14.17C451,8.81,442,26.81,442,26.81Z"/><path class="cls-2" d="M370.19,45.63C363.65,41.74,356.9,35.38,350,25.81A65,65,0,0,1,378.47,11C383.33,16.16,394.78,31.79,370.19,45.63Z"/><path class="cls-3" d="M431.65,26c-16,14.9-37.33,34.05-61.46,19.65a47.18,47.18,0,0,0,7.53-5.17c6.7.25,27.86-.3,53.78-14.6Z"/><path class="cls-4" d="M431.5,25.86c-25.92,14.3-47.08,14.85-53.78,14.6,14.34-12.36,5-24.93.75-29.42C392.85,7.79,411.48,9.33,431.5,25.86Z"/><circle class="cls-5" cx="369" cy="26.81" r="8"/><circle class="cls-6" cx="368.5" cy="27.31" r="6"/></g></g></g></svg>