<svg xmlns="http://www.w3.org/2000/svg" viewBox="0 0 210 140"><defs><style>.cls-1{opacity:0;}.cls-2{fill:#fff;}.cls-3{opacity:0.4;}.cls-4{fill:#333;}.cls-5{fill:#5391f4;}.cls-6{fill:#6ba2f2;}.cls-7{fill:#cc6f23;}.cls-8{fill:#e0893b;}.cls-9{fill:#227f08;}.cls-10{fill:#bc8448;}.cls-11{fill:#a06938;}.cls-12{font-size:10.45px;fill:#f77979;font-family:Quark-Bold, Quark;font-weight:700;}.cls-13{letter-spacing:-0.03em;}.cls-14{fill:#f7a552;}</style></defs><title>not-found</title><g id="Layer_2" data-name="Layer 2"><g id="weather_page" data-name="weather page"><g class="cls-1"><rect class="cls-2" width="210" height="140"/></g><g class="cls-3"><polygon class="cls-4" points="66 111 23 83 36.89 76.99 60 67 66 111"/><polygon class="cls-4" points="28 66 35.52 77.59 37.93 76.54 33 68 40 65 44.99 73.49 48 72.19 41 60 28 66"/></g><path class="cls-5" d="M160,111c0-3.61,11,0,11-5s12,0,10,2-4,7,3,7,0,8,0,8-10.11,7.58-12,0c-1-4-.05-4.81-1-6C167,112,160,116,160,111Z"/><path class="cls-6" d="M174.87,108.65s1.4-2.65,3.17-1.71-1,4-.58,5.36,1.71,3.17.36,3.58S174.4,109.54,174.87,108.65Z"/><path class="cls-5" d="M141,116c1.34.45,0,4,4,4s-3,5-5,3S138,115,141,116Z"/><path class="cls-5" d="M156.89,122.92c1.5-1.51,5.27,0,3.76,1.5s-1.84,1.92-3.76,0A1,1,0,0,1,156.89,122.92Z"/><polygon class="cls-7" points="166 61 159 83 69.03 80.57 62 60 166 61"/><polygon class="cls-8" points="69.03 80.57 48 80 62 60 69.03 80.57"/><polygon class="cls-8" points="166 61 160 94 151 111 159 83 166 61"/><polygon class="cls-8" points="51.52 74.97 44 54 51 41 58.51 64.99 57 67.67 51 49 48 54 53.95 71.5 51.52 74.97"/><polygon class="cls-8" points="164.54 67.71 183 58 185 75 159.96 80 161.38 76.63 180 72 179 64 162.97 70.53 164.54 67.71"/><path class="cls-9" d="M73.09,81.07S56.43,52,60.76,53.07,76.57,78.26,76.57,78.26,61.11,40.71,64.68,43,80.91,79.35,80.91,79.35,70.44,36.6,74.45,40.84,85.36,76.32,85.36,76.32,83.55,45,86.15,47.47s6.69,30.27,6.69,30.27S85.13,84.56,73.09,81.07Z"/><path class="cls-9" d="M79.82,79.41s-8.09-32.54-4.21-30.3,8.32,28.54,8.32,28.54-4.62-40.35-1.8-37.17,5.68,39.4,5.68,39.4,1.61-44,4.3-38.81.81,37.11.81,37.11,6.82-30.65,8.64-27.53-1.83,30.94-1.83,30.94S90.45,86.05,79.82,79.41Z"/><path class="cls-9" d="M136,83.2s1.54-33.49,4.61-30.25-.16,29.73-.16,29.73,7.08-40,8.87-36.14-5.8,39.39-5.8,39.39,14.09-41.7,15.2-36-9.81,35.8-9.81,35.8,15.28-27.43,16.14-23.93S154.47,91,154.47,91,144.3,92.59,136,83.2Z"/><polygon class="cls-10" points="104 83 106 46 116 46 112 83 104 83"/><polygon class="cls-11" points="91 23 90 47 129 53 134 27 91 23"/><text class="cls-12" transform="translate(103.85 34.89) rotate(5.01)">Not</text><text class="cls-12" transform="translate(96.96 43.97) rotate(7)"><tspan class="cls-13">F</tspan><tspan x="4.84" y="0">ound</tspan></text><polygon class="cls-14" points="151 111 66 111 48 80 159 83 151 111"/></g></g></svg>